PathFileType	4	(X/Y/Z)	C:\Users\WrightLab\Desktop\Jo\P5V32.trc
DataRate	CameraRate	NumFrames	NumMarkers	Units	OrigDataRate	OrigDataStartFrame	OrigNumFrames
100.00	100.00	      46	19	mm	100.00	1	      1100
Frame#	Time	Headset_Front			Headset_Back			Headset_Left			Headset_Right			Left_Shoulder			Right_Shoulder			Sternum			C7			Left Elbow			Right Elbow			Left Wrist			Right Wrist			Left ASIS			Right ASIS			S2			Left Knee			Right Knee			Left Ankle			Right Ankle			
		X1	Y1	Z1	X2	Y2	Z2	X3	Y3	Z3	X4	Y4	Z4	X5	Y5	Z5	X6	Y6	Z6	X7	Y7	Z7	X8	Y8	Z8	X9	Y9	Z9	X10	Y10	Z10	X11	Y11	Z11	X12	Y12	Z12	X13	Y13	Z13	X14	Y14	Z14	X15	Y15	Z15	X16	Y16	Z16	X17	Y17	Z17	X18	Y18	Z18	X19	Y19	Z19	

1	0.000																												-378.21979	1178.13647	-1282.74548										-219.11732	939.30621	-1130.72888				102.03288	485.94531	-1186.76794	-284.66010	469.95001	-1190.00598				-245.56619	72.69367	-1286.16895	
2	0.010																												-378.05948	1176.99854	-1280.41748										-219.12247	939.31030	-1130.73047				102.56455	486.31335	-1187.02002	-285.85263	470.80359	-1190.29395				-245.55078	72.68987	-1286.16687	
3	0.020																												-378.08905	1177.03137	-1280.37939										-219.12825	939.31488	-1130.73230				102.54970	486.30481	-1187.01978	-286.00238	470.65552	-1190.61853				-245.57262	72.68486	-1286.16846	
4	0.030																												-378.10452	1177.07483	-1280.32117										-218.78160	939.42114	-1130.84192				102.45223	486.23206	-1187.77087	-285.45584	470.00534	-1190.64001				-245.54292	72.68146	-1286.16492	
5	0.040																												-378.13217	1177.11072	-1280.30859										-218.79002	939.42786	-1130.84448				102.17495	486.34097	-1188.32117	-285.97571	470.72256	-1190.92578				-246.05927	73.43098	-1286.21423	
6	0.050																												-378.17667	1177.11804	-1280.34644										-219.14261	939.32629	-1130.73669				102.18758	486.37338	-1188.33459	-285.62109	469.88876	-1191.13892				-245.56914	72.69943	-1286.17004	
7	0.060																												-378.21707	1177.13013	-1280.33350										-219.15057	939.33258	-1130.73914				102.19188	486.18112	-1188.69604	-286.10321	470.43597	-1191.64233				-245.52509	72.67320	-1286.16199	
8	0.070																												-378.56967	1177.16846	-1279.84033										-219.16057	939.34058	-1130.74219				102.11515	486.10178	-1189.04700	-285.67416	470.21082	-1191.99084				-245.51105	72.67427	-1286.16077	
9	0.080																												-378.62747	1177.19055	-1279.82556										-218.81918	939.45105	-1130.85352				102.10091	486.09583	-1189.04785	-285.68433	470.24582	-1191.99902				-245.52478	72.67197	-1286.16187	
10	0.090																												-378.67093	1177.20752	-1279.81653										-218.82526	939.45587	-1130.85535				102.05196	486.06677	-1189.04651	-285.39816	469.81500	-1191.40222				-246.04666	73.42989	-1286.21277	
11	0.100																												-378.70990	1177.22876	-1279.77454										-218.82593	939.45642	-1130.85559				101.47869	485.69070	-1188.80237	-285.33020	470.25000	-1191.97742				-245.50475	72.67100	-1286.15967	
12	0.110																												-378.69846	1177.27869	-1279.53186										-218.81245	939.44568	-1130.85144				101.44106	485.52075	-1189.14551	-285.31488	470.22995	-1191.96851				-245.52368	72.67978	-1286.16272	
13	0.120																												-378.69180	1177.33142	-1279.36499										-218.81450	939.44733	-1130.85205				101.33152	485.43442	-1189.54395	-285.27786	470.23596	-1191.95239				-245.51277	72.66371	-1286.15942	
14	0.130																												-378.71634	1177.36438	-1279.33044										-218.80911	939.44305	-1130.85034				101.29728	485.40689	-1189.53918	-285.00223	470.09296	-1191.61108				-245.53265	72.68858	-1286.16479	
15	0.140																												-378.72833	1177.40137	-1279.23279										-218.80380	939.43884	-1130.84875				101.25330	485.29337	-1189.97876	-284.93655	470.10196	-1191.58240				-245.50874	72.67818	-1286.16101	
16	0.150																												-378.77914	1177.44226	-1279.15881										-218.69740	939.55280	-1131.04907				101.19781	485.28323	-1189.98914	-284.80823	470.08942	-1191.32776				-245.48987	72.66350	-1286.15710	
17	0.160																												-378.84702	1177.45715	-1279.08435										-218.59222	939.55408	-1131.67590				101.18640	485.28073	-1189.99097	-284.44287	470.49475	-1191.37488				-245.49887	72.67768	-1286.15991	
18	0.170																												-378.90570	1177.43970	-1279.09985										-218.58321	939.54694	-1131.67310				101.13226	485.25568	-1189.99316	-283.90186	470.86493	-1191.35815				-245.48531	72.65396	-1286.15540	
19	0.180																												-378.96564	1177.46008	-1279.04749										-218.56715	939.55420	-1131.67029				100.81940	485.58551	-1190.24023	-283.71375	470.79037	-1191.46118				-245.99417	73.39301	-1286.20239	
20	0.190																												-379.01385	1177.50488	-1278.94092										-218.56076	939.55164	-1131.66858				100.80544	485.57608	-1190.23926	-282.99847	470.47556	-1191.47095				-245.49217	72.66827	-1286.15796	
21	0.200																												-379.07971	1177.18030	-1277.15588										-218.43744	939.68842	-1131.77625				100.77682	485.56436	-1190.24121	-282.58588	470.76666	-1191.35059				-245.48528	72.66636	-1286.15698	
22	0.210																												-379.14957	1177.23523	-1277.11902										-218.42831	939.68988	-1131.77429				100.72424	485.52841	-1190.23718	-282.51166	470.63513	-1191.85022				-245.52261	72.67213	-1286.16162	
23	0.220																												-379.18060	1177.21216	-1276.22681										-218.40842	939.68848	-1131.76978				100.69846	485.51208	-1190.23596	-282.36066	470.85788	-1191.57153				-246.00880	73.40798	-1286.20593	
24	0.230																												-379.23511	1177.34729	-1276.13440										-218.41501	939.69611	-1131.77197				100.72303	485.54633	-1190.24695	-282.39203	470.69254	-1191.89832				-245.53925	72.68481	-1286.16504	
25	0.240																												-379.24225	1177.48279	-1275.46973										-218.39708	939.69611	-1131.76807				100.72260	485.55103	-1190.24951	-282.47104	470.52875	-1192.17627				-245.56961	72.69855	-1286.16992	
26	0.250																												-379.18304	1177.60181	-1274.57092										-218.28540	939.89001	-1131.76489				100.70498	485.54495	-1190.25122	-282.28644	470.76437	-1192.19104				-246.03735	73.40706	-1286.20874	
27	0.260																												-379.40936	1177.91626	-1273.73621										-218.17734	940.07404	-1131.63135				100.72113	485.54004	-1190.24414	-282.35928	470.54724	-1192.49023				-245.54454	72.67883	-1286.16479	
28	0.270																												-379.40189	1178.10339	-1273.23608										-218.23636	939.91156	-1132.07520				100.72512	485.56671	-1190.25696	-282.30652	470.52155	-1192.47852				-245.57153	72.70102	-1286.17053	
29	0.280																												-379.42789	1178.08508	-1271.90601										-218.14777	940.08380	-1131.93677				100.75327	485.53717	-1190.23364	-282.03973	471.00024	-1191.94617				-245.56813	72.69054	-1286.16870	
30	0.290																												-379.93375	1177.88086	-1270.67615										-218.24298	939.91602	-1132.07715				100.74593	485.52573	-1190.22961	-282.05740	470.75455	-1192.23706				-245.55960	72.69643	-1286.16870	
31	0.300																												-379.89084	1178.08069	-1269.70264										-218.25490	939.93420	-1132.08167				100.94702	485.46606	-1190.01318	-281.95935	470.99997	-1191.93323				-245.60594	72.71319	-1286.17566	
32	0.310																												-379.81836	1178.09375	-1267.91113										-218.26456	939.94000	-1132.08447				101.11386	485.22760	-1189.98364	-281.82382	470.89642	-1192.68311				-246.32213	73.20242	-1286.18115	
33	0.320																												-379.85318	1178.26538	-1267.55273										-218.38615	939.75781	-1132.10559				101.15815	485.23004	-1189.97241	-281.79041	470.86307	-1192.67346				-246.09251	73.43974	-1286.21875	
34	0.330																												-379.77533	1178.39148	-1266.01062										-218.41527	939.76843	-1132.11316				101.17706	485.23694	-1189.97070	-281.87576	470.67221	-1193.02368				-246.30453	73.19189	-1286.17798	
35	0.340																												-379.70892	1178.41846	-1264.31128										-218.42096	939.77887	-1132.11560				101.26269	485.27744	-1189.96777	-281.74176	470.88510	-1192.66858				-245.84409	72.46667	-1286.13770	
36	0.350																												-379.69617	1178.55896	-1262.66028										-218.46222	939.66583	-1132.47473				101.29644	485.39594	-1189.53369	-281.84094	470.68054	-1193.01929				-246.36292	73.23076	-1286.18921	
37	0.360																												-380.03549	1178.50024	-1261.18274										-218.48108	939.66187	-1132.47852				101.33605	485.40152	-1189.52539	-281.83878	470.56512	-1193.41333				-246.37973	73.23134	-1286.19092	
38	0.370																												-380.34653	1177.92712	-1258.85510										-218.48006	939.66046	-1132.47815				101.41530	485.47705	-1189.12988	-281.90515	470.61298	-1193.43018				-246.38354	73.24419	-1286.19312	
39	0.380																												-380.68219	1178.23022	-1257.35437										-218.56740	939.40448	-1133.07727				101.43145	485.46915	-1189.12122	-281.67343	470.90860	-1193.71228				-246.41212	73.24430	-1286.19604	
40	0.390																												-380.70819	1178.32959	-1255.44666										-218.57530	939.40137	-1133.07874				101.45958	485.46100	-1189.10901	-281.81979	470.75266	-1193.63635				-246.41193	73.24136	-1286.19556	
41	0.400																												-380.58502	1178.51709	-1253.66211										-218.59547	939.40814	-1133.08386				101.44752	485.59750	-1188.76233	-281.80844	470.98132	-1193.74341				-246.44891	73.25636	-1286.20142	
42	0.410																												-380.44547	1178.90759	-1252.53650										-218.59203	939.40540	-1133.08289				101.45033	485.56943	-1188.74683	-282.02573	470.87463	-1193.68518				-246.57970	72.95473	-1286.63062	
43	0.420																												-380.20978	1179.11157	-1250.09729										-218.59134	939.40485	-1133.08264				101.44691	485.54095	-1188.73291	-282.10724	470.88242	-1193.69922				-246.79216	72.64528	-1286.78735	
44	0.430																												-380.36017	1179.50012	-1248.93262										-218.55341	939.37366	-1133.44690				101.47720	485.57162	-1188.36951	-282.27762	470.78305	-1194.13623				-246.58253	72.94466	-1286.62964	
45	0.440																												-380.27789	1179.77380	-1247.10425										-218.54248	939.36499	-1133.44348				101.44972	485.73462	-1187.99915	-282.96402	471.12238	-1194.43176				-246.62355	72.97510	-1286.63794	
46	0.450																												-380.18994	1180.12854	-1246.14478										-218.55066	939.37146	-1133.44604				101.45063	485.71976	-1187.99109	-283.07916	471.19006	-1194.45898				-246.74332	72.96185	-1286.34521	
